<svg xmlns="http://www.w3.org/2000/svg" width="32" height="32" style="enable-background:new 0 0 32 32" xml:space="preserve"><linearGradient id="a" gradientUnits="userSpaceOnUse" x1="16.36" y1="2.373" x2="16.36" y2="29.055"><stop offset="0" style="stop-color:#00c13e"/><stop offset="1" style="stop-color:#008530"/></linearGradient><path style="fill-rule:evenodd;clip-rule:evenodd;fill:url(#a)" d="M16.361 2.373c-7.416 0-13.446 5.984-13.446 13.342 0 2.917.951 5.623 2.561 7.822l-1.679 4.954 5.166-1.642a13.443 13.443 0 0 0 7.398 2.205c7.413 0 13.445-5.983 13.445-13.339 0-7.358-6.033-13.342-13.445-13.342z"/><path style="fill-rule:evenodd;clip-rule:evenodd;fill:#fff" d="M31.519 15.601c0 8.349-6.821 15.117-15.236 15.117-2.672 0-5.183-.682-7.365-1.881L.482 31.519l2.75-8.111a14.953 14.953 0 0 1-2.186-7.807C1.046 7.251 7.867.482 16.282.482c8.415 0 15.237 6.769 15.237 15.119zM16.283 2.89c-7.064 0-12.81 5.701-12.81 12.711 0 2.779.905 5.356 2.44 7.452l-1.6 4.721 4.922-1.564a12.815 12.815 0 0 0 7.048 2.102c7.063 0 12.809-5.702 12.809-12.71 0-7.011-5.746-12.712-12.809-12.712zm7.694 16.193c-.095-.154-.344-.248-.716-.433-.373-.186-2.211-1.083-2.552-1.206-.343-.123-.594-.185-.842.186s-.965 1.205-1.184 1.453c-.217.248-.434.278-.808.093s-1.578-.578-3.004-1.838c-1.109-.984-1.859-2.197-2.078-2.567-.217-.37-.022-.57.164-.755.168-.167.374-.433.561-.648.187-.217.249-.373.374-.62.125-.248.063-.463-.032-.649-.093-.184-.84-2.008-1.152-2.751-.309-.741-.621-.713-.84-.713-.218 0-.621.064-.621.064s-.749.093-1.09.463c-.342.37-1.307 1.268-1.307 3.089 0 1.824 1.337 3.587 1.523 3.832.188.249 2.583 4.113 6.38 5.596 3.797 1.484 3.797.988 4.482.926.685-.061 2.209-.895 2.521-1.762.313-.864.313-1.607.221-1.76zm0 0"/></svg>